<?xml version="1.0" encoding="utf-8"?>
<!-- Generator: Adobe Illustrator 24.3.0, SVG Export Plug-In . SVG Version: 6.00 Build 0)  -->
<svg version="1.1" xmlns="http://www.w3.org/2000/svg" xmlns:xlink="http://www.w3.org/1999/xlink" x="0px" y="0px"
	 viewBox="0 0 2267.7 1417.3" style="enable-background:new 0 0 2267.7 1417.3;" xml:space="preserve">
<style type="text/css">
	.st0{display:none;}
	.st1{display:inline;fill:#1F2C39;}
	.st2{display:inline;}
	.st3{clip-path:url(#SVGID_2_);fill:#62BCA9;}
	.st4{clip-path:url(#SVGID_2_);fill:#FFFFFF;}
	.st5{display:none;fill:#1F2C39;}
	.st6{clip-path:url(#SVGID_4_);fill:#62BCA9;}
	.st7{clip-path:url(#SVGID_4_);fill:#1F2C39;}
</style>
<g id="Layer_1" class="st0">
	<rect y="2" class="st1" width="2267.7" height="1415.4"/>
	<g class="st2">
		<defs>
			<rect id="SVGID_1_" y="0" width="2267.7" height="1417.3"/>
		</defs>
		<clipPath id="SVGID_2_">
			<use xlink:href="#SVGID_1_"  style="overflow:visible;"/>
		</clipPath>
		<path class="st3" d="M791.3,641.1c-32.7-23.9-73.1-38-116.9-38c-59.7,0-113.2,26.3-149.3,67.8c-29.9,34.3-48,79-48,128v231.3
			c0,13.5,11,24.5,24.5,24.5c5.7,0,12.4-7.7,13.7-8.9l52.1-48.3c1.9-1.8,4.4-2.7,7-2.8l90.2-0.2v0c3.3,0.2,6.6,0.2,9.9,0.2
			c109,0,197.3-87.7,197.3-195.8C871.7,734.2,840,676.8,791.3,641.1 M674.4,912.6c-59.3,0-107.3-48.1-107.3-107.3
			c0-59.3,48.1-107.3,107.3-107.3c59.3,0,107.3,48.1,107.3,107.3C781.7,864.5,733.7,912.6,674.4,912.6"/>
		<path class="st3" d="M781.7,470c0,59.3-48.1,107.3-107.3,107.3c-59.3,0-107.3-48.1-107.3-107.3c0-59.3,48.1-107.3,107.3-107.3
			C733.7,362.7,781.7,410.7,781.7,470"/>
		<path class="st4" d="M1011.4,793.7c40.3-1.4,60.3-28,60.3-79.4c0-50.8-23.4-76.3-70.3-76.3c-45.4,0-68.8,22.3-70.8,67.4V849
			c7.7-15.6,20.3-25.5,38-29.7v-49.1C978.2,786,992.5,793.7,1011.4,793.7 M1000.2,670.3c21.7,0,32.6,15.1,32.6,45.7
			c-0.9,29.1-11.4,43.7-32,43.7c-20.6,0-31.1-14.6-32.3-43.7C968.2,685.5,978.5,670.3,1000.2,670.3"/>
		<path class="st4" d="M1089.3,712.9v78h38.6v-78.5c0-22,10.6-33.1,31.7-33.1h12.9v-39.4h-5.4
			C1116.5,639.8,1090.5,664.1,1089.3,712.9"/>
		<path class="st4" d="M1215.6,639.8h-19.7v151.1h38V658.1C1233.8,645.8,1227.8,639.8,1215.6,639.8"/>
		<path class="st4" d="M1215.6,596.7h-19.7v29.7h38v-11.1C1234.1,602.9,1228.1,596.7,1215.6,596.7"/>
		<path class="st4" d="M1410.3,638.1c-19.4,0-34.3,4-45.1,12.3c-10.9-8.6-25.7-12.9-45.1-12.9c-43.1,0-64.8,21.4-64.8,64.5v88.8
			h38.6v-96.5c0.3-15.7,8.9-23.4,25.7-23.4s25.4,7.7,26.3,23.4v96.5h38.3v-96c0.3-15.7,8.9-23.4,25.7-23.4
			c16.8,0,25.4,7.7,26.3,23.4v77.7c0,12,6.3,18,18.8,18.8h19.7v-88.8C1474.9,659.5,1453.5,638.1,1410.3,638.1"/>
		<path class="st4" d="M1564.6,637.5c-46,0.3-69.1,26-69.1,77.4c0,51.4,22.8,78,68.5,79.4c37.1,0,57.7-17.7,66-49.7h-28
			c-5.1,0-9.4,1.7-12.8,5.4c-7.4,7.1-15.7,10.9-24.6,10.9c-18.6,0-28.6-11.7-30-34.8h97.7C1635.1,666.9,1612.5,637.5,1564.6,637.5
			 M1535.1,698.9c2.9-20,12.6-30.3,28.8-30.3c16.3,0,25.7,10.3,28,30.3H1535.1z"/>
		<path class="st4" d="M1666.7,682.2c-13.2,0-23.9-10.7-23.9-23.9c0-13.2,10.7-23.9,23.9-23.9c13.2,0,23.9,10.7,23.9,23.9
			C1690.6,671.4,1679.9,682.2,1666.7,682.2 M1666.7,636.9c-11.8,0-21.3,9.6-21.3,21.3s9.6,21.3,21.3,21.3c11.8,0,21.3-9.6,21.3-21.3
			S1678.5,636.9,1666.7,636.9"/>
		<path class="st4" d="M1657.3,647.8c0-1.4,0.7-2.1,2.1-2.1h8.7c5,0,7.6,2.2,7.7,6.7c-0.1,3.2-1.4,5.4-3.8,6.6
			c1.5,0.3,2.5,1.1,2.9,2.3c0.4,1.2,0.6,3.1,0.7,5.9c0.1,2,0.2,3.2,0.4,3.5h-3.5c-0.3-0.4-0.4-1.2-0.4-2.2c0-3.9-0.4-6.3-1.1-7.1
			c-0.4-0.6-1.1-0.9-2.1-0.9h-8.2v10.3h-3.4V647.8z M1668,657.7c3.2,0,4.7-1.7,4.5-5.2c0-2.5-1.5-3.8-4.5-4h-7.4v9.1L1668,657.7z"/>
		<path class="st4" d="M1062.7,881.5h-26.2c-6-17.9-18.6-26.8-37.9-26.8c-28.3,0-42.8,18.2-43.5,54.7c0,36.1,14.5,54.1,43.5,54.1
			c16-1.1,26.8-6.5,32.4-16.2c3.3-6,8.4-8.9,15.1-8.9h16.7c-7.8,32.7-29.9,49.1-66.4,49.1c-44.6,0-66.9-26-66.9-78.1
			s22.7-78.1,68.1-78.1C1035.3,831.3,1057.1,848,1062.7,881.5"/>
		<path class="st4" d="M1156.7,889.9c13.4-2.2,20.1-8.7,20.1-19.5c0-12.6-11.7-18.6-35.1-17.8c-20.5,0.4-30.7,7.3-30.7,20.6h-26.8
			c0-27.5,19.3-41.5,58-41.8c40.2,0,60.4,12.1,60.8,36.3v63.6c0,19-5.4,33.1-16.2,42.4c-10.8,9.3-28.8,13.9-54.1,13.9
			c-37.6,0-56-15.6-55.2-46.9c0.7-24.5,16.4-39.6,46.9-45.2C1134,894,1144.8,892.1,1156.7,889.9 M1164.5,908.3
			c-5.6,1.5-14.5,3-26.8,4.5c-21.2,3-31.8,12.6-31.8,28.7c0,16.2,10.4,24.3,31.2,24.3c26.4,0,39.6-11.5,39.6-34.6v-28.5
			C1174.2,904.9,1170.1,906.8,1164.5,908.3"/>
		<path class="st4" d="M1223.9,901.6c0-45.4,22.7-68.1,68.1-68.1h9.5v26.2h-11.7c-26,0-39.2,12.6-39.6,37.9v87h-26.2V901.6z"/>
		<path class="st4" d="M1327.7,918.9c2.2,29.8,16.5,44.6,43,44.6c16-1.1,26.8-6.5,32.4-16.2c3.3-6,8.4-8.9,15.1-8.9h16.7
			c-7.8,32.7-29.9,49.1-66.4,49.1c-43.9,0-66.2-26-66.9-78.1c0.4-52.1,23.2-78.1,68.6-78.1c47.6,0,69.9,29.2,66.9,87.6H1327.7z
			 M1369.8,854.7c-24.7,0-38.8,14.1-42.1,42.4h83.7C1408.4,868.9,1394.5,854.7,1369.8,854.7"/>
		<path class="st4" d="M1506.4,913.1c11-8,19.2-14.6,24.7-19.8c5.5-5.2,8.4-11.1,8.7-17.6c0.3-19.3-9.7-29-29.9-29
			c-10.4,0-18.3,3.2-23.6,9.6c-5.3,6.4-7.7,14.5-7.1,24.3h-12.5c-6.2,0-9.4-2.7-9.4-8c0.6-14.6,6-25.5,16.3-32.8
			c10.3-7.3,23-10.9,38.1-10.9c14.9,0,27,3.9,36.3,11.8c9.4,7.9,14,19.4,14,34.6c0,12.2-5.1,22.9-15.2,32.1
			c-11.3,10.4-24.4,21.2-39.2,32.3c-14.9,11.1-22.7,20.9-23.6,29.2h77.6v17.8h-107.9c-0.6-10.4,2.7-21.1,9.8-32.1
			C1470.2,943.9,1484.4,930.1,1506.4,913.1"/>
		<path class="st4" d="M1789.3,837.3c-1.8-3.9-5.5-5.8-11.1-5.8h-72.3l-8.5,17.4h70.5c-21.4,24.1-37.2,47.5-47.3,70.2
			c-10.1,22.7-15.5,45.3-16.1,67.6h24.1c0.3-28.8,5.6-52.8,15.8-71.8c10.3-19,24.4-40,42.6-62.9
			C1790.9,847.3,1791.6,842.4,1789.3,837.3"/>
		<path class="st4" d="M1650.5,844.5c0-8.6-4.2-12.9-12.5-12.9h-21.4l-58.9,93.2v23.6h64.1l28.8-59.1L1650.5,844.5z M1628.6,931
			h-51.7l51.7-82V931z"/>
		<polygon class="st4" points="1650.5,923 1628.6,967.8 1628.6,986.7 1650.5,986.7 1650.5,948.4 1673.2,948.4 1673.2,931 
			1650.5,931 		"/>
		<polygon class="st3" points="1692.3,828.9 1683.6,828.9 1682.5,828.9 1681.2,831.5 1678.7,836.8 1603.9,991.4 1605,991.4 
			1613.2,991.4 1614.2,991.4 1683.7,848.9 1692.1,831.5 1693.4,828.9 		"/>
	</g>
</g>
<g id="Layer_1_copy">
	<rect y="2" class="st5" width="2267.7" height="1415.4"/>
	<g>
		<defs>
			<rect id="SVGID_3_" x="-723" y="-420.4" width="3705.2" height="2315.7"/>
		</defs>
		<clipPath id="SVGID_4_">
			<use xlink:href="#SVGID_3_"  style="overflow:visible;"/>
		</clipPath>
		<path class="st6" d="M569.8,627.2c-53.4-39.1-119.5-62.1-191-62.1c-97.5,0-184.9,43-244,110.8C86.1,731.9,56.5,805,56.5,884.9
			v377.9c0,22.1,17.9,40,40,40c9.2,0,20.3-12.6,22.4-14.5l85.1-79c3.1-2.9,7.2-4.5,11.4-4.5l147.3-0.4v0c5.4,0.3,10.8,0.4,16.2,0.4
			c178,0,322.4-143.2,322.4-319.9C701.2,779.2,649.5,685.4,569.8,627.2 M378.9,1070.7c-96.9,0-175.4-78.5-175.4-175.4
			c0-96.9,78.5-175.4,175.4-175.4c96.9,0,175.4,78.5,175.4,175.4C554.3,992.2,475.7,1070.7,378.9,1070.7"/>
		<path class="st6" d="M554.3,347.5c0,96.9-78.5,175.4-175.4,175.4c-96.9,0-175.4-78.5-175.4-175.4c0-96.9,78.5-175.4,175.4-175.4
			C475.7,172.1,554.3,250.7,554.3,347.5"/>
		<path class="st7" d="M929.4,876.4c65.8-2.3,98.5-45.7,98.5-129.7c0-83.1-38.3-124.6-114.8-124.6c-74.2,0-112.5,36.4-115.7,110.1
			v234.6c12.5-25.5,33.2-41.7,62.1-48.5v-80.2C875.3,863.8,898.6,876.4,929.4,876.4 M911.2,674.9c35.5,0,53.2,24.7,53.2,74.7
			c-1.4,47.6-18.7,71.4-52.3,71.4c-33.6,0-50.9-23.8-52.7-71.4C859,699.6,875.8,674.9,911.2,674.9"/>
		<path class="st7" d="M1056.8,744.4v127.4h63V743.5c0-35.9,17.3-54.1,51.8-54.1h21v-64.4h-8.9
			C1101.2,624.9,1058.7,664.6,1056.8,744.4"/>
		<path class="st7" d="M1263.1,624.9h-32.2v246.8h62.1v-217C1292.9,634.7,1283.1,624.9,1263.1,624.9"/>
		<path class="st7" d="M1263.1,554.5h-32.2V603h62.1v-18.2C1293.4,564.7,1283.6,554.5,1263.1,554.5"/>
		<path class="st7" d="M1581.3,622.1c-31.7,0-56,6.5-73.7,20.1c-17.7-14-42-21-73.7-21c-70.5,0-105.9,35-105.9,105.5v145.1h63V714.1
			c0.5-25.7,14.5-38.3,42-38.3s41.5,12.6,42.9,38.3v157.7h62.5V715c0.5-25.7,14.5-38.3,42-38.3c27.5,0,41.5,12.6,42.9,38.3v126.9
			c0,19.6,10.3,29.4,30.8,30.8h32.2V727.6C1686.8,657.1,1651.8,622.1,1581.3,622.1"/>
		<path class="st7" d="M1833.3,621.2c-75.1,0.5-112.9,42.5-112.9,126.5s37.3,127.4,112,129.7c60.7,0,94.3-28.9,107.8-81.2h-45.7
			c-8.4,0-15.4,2.8-21,8.9c-12.1,11.7-25.7,17.7-40.1,17.7c-30.3,0-46.7-19.1-49-56.9h159.6C1948.6,669.3,1911.7,621.2,1833.3,621.2
			 M1785.3,721.5c4.7-32.7,20.5-49.5,47.1-49.5c26.6,0,42,16.8,45.7,49.5H1785.3z"/>
		<path class="st7" d="M2000.2,694.2c-21.5,0-39-17.5-39-39c0-21.5,17.5-39,39-39c21.5,0,39,17.5,39,39
			C2039.2,676.7,2021.7,694.2,2000.2,694.2 M2000.2,620.3c-19.2,0-34.9,15.6-34.9,34.9s15.6,34.9,34.9,34.9
			c19.2,0,34.9-15.6,34.9-34.9S2019.4,620.3,2000.2,620.3"/>
		<path class="st7" d="M1984.9,638.1c0-2.3,1.1-3.4,3.4-3.4h14.3c8.2-0.1,12.4,3.6,12.6,11c-0.2,5.2-2.2,8.8-6.2,10.8
			c2.4,0.5,4,1.7,4.7,3.8c0.6,1.9,1,5.1,1.2,9.7c0.2,3.3,0.4,5.2,0.7,5.8h-5.8c-0.5-0.7-0.7-1.9-0.7-3.7c-0.1-6.4-0.7-10.2-1.8-11.7
			c-0.6-1-1.8-1.5-3.4-1.5h-13.4v16.8h-5.5V638.1z M2002.3,654.2c5.2,0,7.7-2.8,7.4-8.5c0-4.1-2.4-6.2-7.3-6.5h-12v14.8
			L2002.3,654.2z"/>
		<path class="st7" d="M1013.3,1019.9h-42.8c-9.7-29.2-30.4-43.7-62-43.7c-46.2,0-69.9,29.8-71.1,89.3c0,58.9,23.7,88.4,71.1,88.4
			c26.1-1.8,43.7-10.6,52.9-26.4c5.5-9.7,13.7-14.6,24.6-14.6h27.3c-12.8,53.5-48.9,80.2-108.5,80.2c-72.9,0-109.4-42.5-109.4-127.6
			c0-85.1,37.1-127.6,111.2-127.6C968.6,937.8,1004.2,965.2,1013.3,1019.9"/>
		<path class="st7" d="M1166.9,1033.5c21.9-3.6,32.8-14.3,32.8-31.9c0-20.7-19.1-30.4-57.4-29.2c-33.4,0.6-50.1,11.8-50.1,33.7
			h-43.7c0-45,31.6-67.7,94.8-68.4c65.6,0,98.7,19.8,99.3,59.2V1101c0,31-8.8,54.1-26.4,69.3c-17.6,15.2-47.1,22.8-88.4,22.8
			c-61.4,0-91.4-25.5-90.2-76.6c1.2-40.1,26.7-64.7,76.6-73.8C1129.8,1040.2,1147.4,1037.2,1166.9,1033.5 M1179.6,1063.6
			c-9.1,2.4-23.7,4.9-43.7,7.3c-34.6,4.9-51.9,20.5-51.9,46.9c0,26.4,17,39.6,51,39.6c43.1,0,64.7-18.8,64.7-56.5v-46.5
			C1195.4,1058.1,1188.8,1061.2,1179.6,1063.6"/>
		<path class="st7" d="M1276.7,1052.7c0-74.1,37.1-111.2,111.2-111.2h15.5v42.8h-19.1c-42.5,0-64.1,20.7-64.7,62v142.2h-42.8V1052.7
			z"/>
		<path class="st7" d="M1446.3,1080.9c3.6,48.6,27,72.9,70.2,72.9c26.1-1.8,43.7-10.6,52.9-26.4c5.5-9.7,13.7-14.6,24.6-14.6h27.3
			c-12.8,53.5-48.9,80.2-108.5,80.2c-71.7,0-108.2-42.5-109.4-127.6c0.6-85.1,38-127.6,112.1-127.6c77.8,0,114.2,47.7,109.4,143.1
			H1446.3z M1515.1,976.1c-40.4,0-63.3,23.1-68.8,69.3H1583C1578.1,999.2,1555.5,976.1,1515.1,976.1"/>
		<path class="st7" d="M1738.3,1071.6c18-13.1,31.4-23.9,40.4-32.4c9-8.5,13.7-18.1,14.2-28.8c0.5-31.6-15.8-47.4-48.8-47.4
			c-17,0-29.9,5.2-38.6,15.7c-8.7,10.4-12.6,23.7-11.7,39.7h-20.4c-10.2,0-15.3-4.4-15.3-13.1c1-23.8,9.8-41.6,26.6-53.5
			c16.8-11.9,37.5-17.8,62.3-17.8c24.3,0,44.1,6.4,59.4,19.3c15.3,12.9,22.9,31.7,22.9,56.5c0,19.9-8.3,37.4-24.8,52.5
			c-18.5,17-39.8,34.6-64.1,52.8c-24.3,18.2-37.2,34.1-38.6,47.7h126.8v29.1h-176.3c-1-17,4.4-34.5,16-52.5
			C1679.1,1121.8,1702.4,1099.2,1738.3,1071.6"/>
		<path class="st7" d="M2200.5,947.7c-2.9-6.3-9-9.5-18.2-9.5h-118.1l-13.8,28.4h115.2c-35,39.3-60.7,77.6-77.2,114.7
			c-16.5,37.2-25.3,73.9-26.2,110.4h39.3c0.5-47.1,9.1-86.2,25.9-117.3c16.8-31.1,39.9-65.3,69.6-102.7
			C2203.1,964,2204.3,956,2200.5,947.7"/>
		<path class="st7" d="M1973.7,959.4c0-14.1-6.8-21.1-20.4-21.1h-35l-96.2,152.3v38.6h104.7l47-96.6L1973.7,959.4z M1938,1100.7
			h-84.5l84.5-134V1100.7z"/>
		<polygon class="st7" points="1973.7,1087.7 1938,1160.9 1938,1191.8 1973.7,1191.8 1973.7,1129.1 2010.8,1129.1 2010.8,1100.7 
			1973.7,1100.7 		"/>
		<polygon class="st6" points="2042.1,934 2027.8,934 2026,934 2023.9,938.2 2019.8,946.8 1897.7,1199.4 1899.5,1199.4 
			1912.7,1199.4 1914.5,1199.4 2027.9,966.7 2041.8,938.2 2043.8,934 		"/>
	</g>
</g>
</svg>
